<?xml version="1.0" encoding="utf-8"?>
<!-- Generator: Adobe Illustrator 19.0.0, SVG Export Plug-In . SVG Version: 6.00 Build 0)  -->
<svg version="1.1" id="图层_1" xmlns="http://www.w3.org/2000/svg" xmlns:xlink="http://www.w3.org/1999/xlink" x="0px" y="0px"
	 viewBox="0 0 326.1 325.3" style="enable-background:new 0 0 326.1 325.3;" xml:space="preserve">
<style type="text/css">
	.st0{fill:#FFFFFF;stroke:#000000;stroke-width:20;stroke-miterlimit:10;}
	.st1{fill:none;stroke:#000000;stroke-width:20;stroke-miterlimit:10;}
	.st2{font-family:'XMento-Bold';}
	.st3{font-size:40px;}
	.st4{font-family:'LucidaSansUnicode';}
	.st5{font-size:36px;}
</style>
<path id="XMLID_12_" class="st0" d="M84.3,221.2"/>
<path id="XMLID_25_" class="st0" d="M140.6,84.2c14,13.8,22.8,33,22.8,54.2"/>
<path id="XMLID_24_" class="st1" d="M11.6,138.3c0-21,8.5-39.9,22.2-53.7s32.7-22.2,53.7-22.2"/>
<path id="XMLID_13_" class="st0" d="M236.6,69.2"/>
<path id="XMLID_10_" class="st1" d="M316.2,153.3c0,41.9-34,75.9-75.9,75.9s-75.9-34-75.9-75.9"/>
<path id="XMLID_19_" class="st0" d="M0,160.4"/>
<path id="XMLID_17_" class="st1" d="M164.5,153.3c0,38.1-34.5,68.9-77,68.9"/>
<path id="XMLID_16_" class="st0" d="M87.5,58.9"/>
<text id="XMLID_23_" transform="matrix(1 0 0 1 304.2867 138.3419)" class="st2 st3">∧</text>
<text id="XMLID_27_" transform="matrix(1 0 0 1 87.6132 279.4232)" class="st4 st5">LAMBDA</text>
</svg>
